<?xml version="1.0" encoding="UTF-8"?>
<svg id="Vrstva_1" data-name="Vrstva 1" xmlns="http://www.w3.org/2000/svg" viewBox="0 0 1900.85 217.21">
  <defs>
    <style>
      .cls-1 {
        fill: #009640;
      }
    </style>
  </defs>
  <path class="cls-1" d="M1237.18,216.8c-95.25-3.88-190.94-14.88-293.81-33.69-115.88-21.19-246.94-53.19-430.56-105-58.31-16.5-83.94-23.25-111.25-29.38-66.13-14.88-127.19-23.5-202.19-28.56-23.38-1.56-110.81-1.56-137.5.06-27.75,1.63-57.38,4.13-60.94,5.13q-1.25.38.06-.94c1.5-1.56,5.94-2.88,13.06-3.81,2.75-.38,7.69-1.38,10.94-2.25,3.25-.81,7.38-1.75,9.06-2.06,1.75-.31,8.75-1.56,15.63-2.81,12.19-2.19,17.38-2.94,28.56-4.13,3-.31,7.81-1,10.63-1.5,13.06-2.44,57.06-6.25,83.63-7.25,21.44-.81,86.94-.81,101.88,0,84.88,4.63,149.88,15.63,280.94,47.56,12.75,3.13,35.25,8.63,50,12.19,98.81,24.13,133.31,32.31,183.75,43.63,201.25,45.19,358.56,67.31,513.13,72.25,111.81,3.5,223.06-1.13,328.44-13.75,64.75-7.75,123.5-17.06,179.38-28.44,16.5-3.38,19.06-3.88,24.06-4.69,2.06-.31,6.44-1.25,9.69-2.06,3.25-.88,7.63-1.88,9.69-2.25,2.06-.44,7.13-1.56,11.25-2.5,14.63-3.5,21.94-5.13,24.69-5.5,1.56-.19,3.13-.63,3.56-.94.44-.38,2.56-.75,4.69-.88,3.88-.25,3.94-.25,1.75.63-17.25,6.88-63.06,22.38-90.63,30.69-121.69,36.69-265.44,62.13-386.56,68.44-7.19.38-17.63,1-23.13,1.38-11.81.81-143.88,1.19-161.88.44h-.02Z"/>
</svg>