<?xml version="1.0" encoding="utf-8"?>
<!DOCTYPE svg PUBLIC "-//W3C//DTD SVG 1.0//EN" "http://www.w3.org/TR/2001/REC-SVG-20010904/DTD/svg10.dtd">
<svg version="1.0" xmlns="http://www.w3.org/2000/svg" width="1920px" height="220px" viewBox="0 0 1920 220" preserveAspectRatio="xMidYMid meet">
 <g fill="#ffffff" stroke="#ffffff" stroke-width="0.625">
  <path d="M0 110 l0 -110 960 0 960 0 0 110 0 110 -260.94 0 c-185.13 0 -260.94 -0.19 -260.94 -0.69 0 -1.88 1.81 -2.25 12.19 -2.69 130.06 -5.25 277.38 -30.44 407.50 -69.50 17.75 -5.38 64.88 -20.88 64.50 -21.31 -0.19 -0.13 -2.94 0.44 -6.13 1.31 -3.25 0.81 -7 1.69 -8.38 1.94 -1.38 0.19 -6 1.25 -10.19 2.31 -4.25 1 -9.31 2.13 -11.25 2.44 -4.81 0.75 -7.50 1.31 -23.88 4.63 -65.56 13.31 -142.75 24.94 -215.63 32.50 -24.88 2.56 -72.06 6.19 -101.88 7.81 -71.94 3.81 -160.69 3.94 -231.88 0.31 -145.25 -7.50 -289.25 -28.88 -475.31 -70.69 -50.44 -11.31 -84.94 -19.50 -183.75 -43.63 -14.75 -3.56 -37.25 -9.06 -50 -12.19 -131.06 -31.94 -196.06 -42.94 -280.94 -47.56 -14.88 -0.81 -76.69 -0.81 -98.13 0 -26.56 1 -70.56 4.81 -83.63 7.25 -2.81 0.50 -7.63 1.19 -10.63 1.50 -11.13 1.19 -16.38 1.94 -28.56 4.13 -17.56 3.19 -21 3.81 -23.13 4.56 -1.56 0.56 -1.25 0.63 1.88 0.38 12.88 -1.13 35.69 -2.25 56.25 -2.88 31.19 -0.94 95.56 -0.38 115.63 0.94 73.13 4.88 135.38 13.69 201.25 28.50 27.31 6.13 52.94 12.88 111.25 29.38 260.50 73.56 425 109.63 582.19 127.75 38.94 4.50 113.19 10.38 131.75 10.38 3 0 5.13 0.25 5.13 0.63 0 0.38 3.13 0.63 8.13 0.63 6.81 0 8.13 0.13 8.13 0.94 0 0.81 -70.44 0.94 -630.31 0.94 l-630.31 0 0 -110z"/>
 </g>
 <g fill="#f1bf40">
  <path d="M1247.81 219.31 c-95.25 -3.88 -190.94 -14.88 -293.81 -33.69 -115.88 -21.19 -246.94 -53.19 -430.56 -105 -58.31 -16.50 -83.94 -23.25 -111.25 -29.38 -66.13 -14.88 -127.19 -23.50 -202.19 -28.56 -23.38 -1.56 -110.81 -1.56 -137.50 0.06 -27.75 1.63 -57.38 4.13 -60.94 5.13 -1.25 0.38 -1.25 0.38 0.06 -0.94 1.50 -1.56 5.94 -2.88 13.06 -3.81 2.75 -0.38 7.69 -1.38 10.94 -2.25 3.25 -0.81 7.38 -1.75 9.06 -2.06 1.75 -0.31 8.75 -1.56 15.63 -2.81 12.19 -2.19 17.38 -2.94 28.56 -4.13 3 -0.31 7.81 -1 10.63 -1.50 13.06 -2.44 57.06 -6.25 83.63 -7.25 21.44 -0.81 86.94 -0.81 101.88 0 84.88 4.63 149.88 15.63 280.94 47.56 12.75 3.13 35.25 8.63 50 12.19 98.81 24.13 133.31 32.31 183.75 43.63 201.25 45.19 358.56 67.31 513.13 72.25 111.81 3.50 223.06 -1.13 328.44 -13.75 64.75 -7.75 123.50 -17.06 179.38 -28.44 16.50 -3.38 19.06 -3.88 24.06 -4.69 2.06 -0.31 6.44 -1.25 9.69 -2.06 3.25 -0.88 7.63 -1.88 9.69 -2.25 2.06 -0.44 7.13 -1.56 11.25 -2.50 14.63 -3.50 21.94 -5.13 24.69 -5.50 1.56 -0.19 3.13 -0.63 3.56 -0.94 0.44 -0.38 2.56 -0.75 4.69 -0.88 3.88 -0.25 3.94 -0.25 1.75 0.63 -17.25 6.88 -63.06 22.38 -90.63 30.69 -121.69 36.69 -265.44 62.13 -386.56 68.44 -7.19 0.38 -17.63 1 -23.13 1.38 -11.81 0.81 -143.88 1.19 -161.88 0.44z"/>
 </g>
</svg>