<svg width="271" height="77" viewBox="0 0 271 77" fill="none" xmlns="http://www.w3.org/2000/svg">
<g clip-path="url(#clip0_18867_4698)">
<path d="M100.057 15.6234H133.692V23.5171H121.095V61.6631H112.654V23.5171H100.057V15.6234Z" fill="#111111"/>
<path d="M149.406 61.6599H140.964V15.6234H149.406V61.6631V61.6599Z" fill="#111111"/>
<path d="M165.402 15.6234V32.7237L180.922 15.6234H191.311L172.871 36.2088L192.61 61.6631H181.897L165.405 39.6971V61.6631H156.964V15.6234H165.405H165.402Z" fill="#111111"/>
<path d="M203.148 15.6234V32.7237L218.668 15.6234H229.057L210.618 36.2088L230.356 61.6631H219.643L203.152 39.6971V61.6631H194.71V15.6234H203.152H203.148Z" fill="#111111"/>
<path d="M258.597 50.8088H244.183L240.872 61.6599H231.783L247.172 15.6201H255.614L271.003 61.6599H261.914L258.603 50.8088H258.597ZM246.585 42.9151H256.195L251.391 26.9346L246.588 42.9151H246.585Z" fill="#111111"/>
<path d="M0 0L43.8906 77L87.7811 0H0ZM43.8906 16.1865L40.6468 22.896L40.5769 57.779L20.6951 22.896H30.5058V16.1865H16.8732L11.4691 6.70629H76.3089L70.908 16.1865H57.2754V22.896H67.0828L47.201 57.779V22.896L43.8906 16.1865Z" fill="#FF7300"/>
</g>
<defs>
<clipPath id="clip0_18867_4698">
<rect width="271" height="77" fill="white"/>
</clipPath>
</defs>
</svg>
