<svg xmlns="http://www.w3.org/2000/svg" viewBox="0 0 205 63" role="img" aria-label="Pinewood logo">
  <g fill="#ff5100">
    <path d="M61.0938 26.4367C61.1516 25.1109 60.9203 24.0695 59.9953 22.1097C59.0703 19.9769 56.7539 17.2062 55.0773 16.1687C53.2272 15.0735 47.2069 14.4394 44.7787 15.0735C44.1428 15.2464 43.6803 15.3617 43.3912 15.3617C43.3334 15.3617 43.1599 15.3617 42.8709 15.304C42.7552 15.304 41.7724 15.1888 39.9802 15.0158C39.9224 15.0158 39.6333 15.0158 39.2286 15.0735C38.7661 15.1311 38.3614 15.1888 38.0145 15.1888C37.8989 15.1888 37.7254 15.1888 37.4942 15.1311C37.2051 15.0735 36.9739 15.0735 36.916 15.0735C36.2223 15.0735 35.7598 15.477 35.7598 15.9957C35.7598 16.5145 36.1645 17.091 36.7426 17.3792C38.9434 18.532 39.3481 18.9931 39.9262 20.6686C40.1575 21.3027 40.3309 23.0358 40.3309 24.7074V25.9755C40.2924 26.7057 40.2731 27.2437 40.2731 27.5895L40.5043 36.1283C40.4465 37.1658 40.3887 37.9767 40.3887 38.1457C40.5044 39.4549 40.5622 40.3387 40.5622 40.7973C40.5622 44.8937 40.5044 45.6431 39.8684 48.1255C39.3481 50.2583 39.059 50.8924 38.3652 51.3573C37.3246 52.0875 36.8043 52.5678 36.8043 52.7984C36.8043 53.4325 37.7293 53.836 39.1785 53.836C39.5832 53.836 40.7395 53.7207 42.9402 53.4325C43.9231 53.4325 46.4707 53.5478 47.0489 53.663C47.3958 53.7207 47.6848 53.7207 47.9739 53.7207C48.4942 53.7207 48.8411 53.4901 48.8411 53.2019C48.8411 52.9137 48.6098 52.6831 48.0317 52.2796C46.7598 51.5303 45.7192 49.7972 45.4262 47.9526C45.5033 46.4539 45.5419 45.5893 45.5419 45.3587C45.5419 44.7823 45.484 44.2059 45.4262 43.7447C45.3106 43.1107 45.2528 42.588 45.2528 42.588C45.3684 41.4352 45.4262 40.5129 45.4262 39.7597C45.484 39.4139 45.484 39.068 45.5419 38.8951C45.8887 36.9929 45.9466 36.8776 46.7559 36.8776L48.2591 36.9353C49.4925 36.82 50.3802 36.7623 50.9224 36.7623C51.4646 36.7623 52.0427 36.6855 52.6568 36.5318C53.1771 36.3588 53.7553 36.1859 54.2756 36.0706C55.1428 35.8401 56.5881 35.0331 57.228 34.3414C59.2514 32.2624 59.6022 31.9165 59.9452 31.3978C60.7546 30.1873 60.9858 29.1497 61.1015 26.4367H61.0938ZM55.5976 27.0131L55.1351 29.1459C54.846 30.414 54.7882 30.6446 54.4413 31.0481L53.921 31.6821L53.5741 32.1433C52.5335 33.5267 51.6663 33.9878 50.3327 34.0493C49.6967 34.1069 48.7139 34.2222 47.4382 34.4528C47.2647 34.5104 46.5131 34.2799 46.3397 34.1069C45.7616 33.7034 45.5881 33.127 45.299 31.3363L45.1256 30.414C45.01 30.0105 45.01 29.7799 45.01 29.5494C45.01 29.3188 45.01 29.2035 45.1256 28.7424L45.1834 27.8777C45.2412 27.7048 45.2412 27.4166 45.299 26.8978L45.2412 25.2838C45.2412 25.1109 45.299 24.6498 45.3569 23.9581C45.4147 23.6122 45.4147 23.2664 45.4147 22.9205V22.4594C45.3376 21.7292 45.299 21.2873 45.299 21.1336C45.299 19.5196 46.7444 17.6136 48.0201 17.6136L49.0608 17.6712L50.3905 17.6136C51.3155 17.7289 51.6624 17.9018 52.9382 19.2276L54.2101 20.3228C54.6726 20.7263 55.3085 21.7638 55.3085 22.2826L55.482 24.0695L55.5976 24.6459C55.7132 25.3953 55.8289 25.9141 55.8289 26.087C55.8289 26.2599 55.8289 26.3176 55.5976 27.0093V27.0131Z" class="fill-[var(--logo-color)]"></path>
    <path d="M67.4418 46.166C67.4418 44.2023 67.384 42.7612 67.2684 41.7237C67.2684 41.666 67.2684 41.4355 67.3262 41.032C67.4996 40.1673 67.4996 39.3603 67.4996 36.9355C67.4996 36.5897 67.4804 36.167 67.4418 35.6674C67.5575 34.6298 67.6153 33.9766 67.6153 33.7076C67.6153 32.8429 67.384 32.4971 66.8059 32.4971C66.459 32.4971 65.534 32.9582 64.3199 33.7652L63.8574 33.9958L62.8745 34.5145C62.123 34.918 61.8339 35.2063 61.8339 35.6674C61.8339 35.9556 61.8917 36.1285 62.0073 36.2438C63.5683 37.5119 63.6261 37.5696 63.6261 38.0884C63.6261 38.2037 63.5683 38.6648 63.5105 39.2989L63.4527 39.8753L63.337 40.5093V40.9705C63.4527 42.2002 63.5105 42.8727 63.5105 42.988C63.5105 45.0669 63.4527 47.142 63.3949 47.4879C63.2792 48.2565 63.2214 48.8329 63.2214 49.2172C63.2214 50.1394 63.0865 50.7748 62.8167 51.1232C62.0844 52.007 61.7183 52.545 61.7183 52.7372C61.7183 53.1983 62.0651 53.6595 62.412 53.7171C62.412 53.7171 63.1636 53.6595 64.3237 53.5442H64.6706C65.1909 53.5442 65.5956 53.5442 65.8847 53.6018C66.6556 53.6787 67.1566 53.7171 67.3879 53.7171C68.3707 53.7171 69.1801 53.3136 69.1801 52.9101C69.1801 52.5643 68.891 51.9878 68.3707 51.2385C67.6191 50.2009 67.4457 49.221 67.4457 46.1621L67.4418 46.166Z" class="fill-[var(--logo-color)]"></path>
    <path d="M65.5916 30.5335C66.5166 30.5335 68.0236 28.8042 68.0236 27.7051C68.0236 26.3217 66.5783 25.165 64.9556 25.165C64.2619 25.165 63.6259 25.4532 63.3368 25.9144C63.0478 26.2602 62.6431 27.2402 62.6431 27.5284C62.8165 28.8541 62.8743 28.9694 62.9899 29.2C63.2212 29.7764 64.7244 30.5258 65.5916 30.5258V30.5335Z" class="fill-[var(--logo-color)]"></path>
    <path d="M91.7273 52.7441C91.7273 52.5712 91.5538 52.3406 90.8022 51.7065C90.2819 51.2454 90.0507 50.7843 89.7616 50.0349C89.7038 49.9196 89.5881 49.5738 89.3569 49.055C89.1642 48.517 88.9522 46.4598 88.7209 42.8834C88.798 41.8843 88.8366 41.3079 88.8366 41.1542C88.8366 40.5201 88.7209 38.2106 88.6053 37.5765C88.3162 35.0941 87.9115 33.9988 86.9287 33.3648C86.2349 32.9036 83.5138 32.1543 82.4154 32.1543C81.3747 32.1543 80.2763 32.4425 79.6365 32.846C78.6729 33.4609 78.1333 33.7683 78.0177 33.7683C77.9021 33.7683 77.8442 33.7106 77.7864 33.653C77.6708 32.6923 77.4974 32.2119 77.2661 32.2119C77.1505 32.2119 76.977 32.2696 76.8614 32.3849L74.9535 33.7683C74.0285 34.2871 73.0457 34.8058 71.9434 35.3246C71.4231 35.6128 71.1918 35.8434 71.1918 36.1893C71.1918 36.708 71.3074 36.8233 72.695 37.3997C73.5622 37.7456 73.9669 38.5526 73.9669 39.9975V40.5739L73.909 41.6691C73.909 48.8782 73.7934 49.4585 72.2324 51.476C71.134 52.2253 71.0762 52.283 71.0762 52.6865C71.0762 53.2052 71.5387 53.4935 72.3481 53.4935C72.5793 53.4935 72.8106 53.4935 72.9262 53.4358C74.0054 53.2052 74.6799 53.09 74.9497 53.09H75.2966L77.3779 53.3205C78.2451 53.4935 78.4763 53.4935 79.1123 53.4935C79.7482 53.4935 80.0951 53.3205 80.0951 52.9747C80.0951 52.8594 80.0373 52.7441 79.9795 52.6865C78.7076 51.8795 78.4763 51.5913 78.1873 50.6075C78.0138 50.0887 77.6669 48.1865 77.6669 47.6639C77.6669 47.491 77.6669 47.1451 77.7248 46.684V46.1076C77.7248 45.9154 77.6669 45.1456 77.5513 43.798C77.5513 43.798 77.5513 43.6251 77.6091 43.3945L77.7826 41.9535L77.8404 41.2041C77.8789 40.9351 77.8982 40.7238 77.8982 40.5701C77.8982 40.2819 77.956 39.936 78.0716 39.4749L78.0138 37.8032C78.0138 37.6303 78.0716 37.515 78.3029 37.0539C78.4763 36.7657 78.6498 36.3622 78.8232 35.901C79.0545 35.2093 80.442 34.5176 81.6599 34.5176C82.7584 34.5176 84.0303 35.5552 84.6123 36.8233C84.9014 37.515 85.0748 40.1704 85.0748 43.6289C85.0748 44.6665 85.017 45.1276 84.9014 45.8232C84.8436 46.0538 84.8436 46.2267 84.8436 46.2267L84.9592 49.055C84.9592 49.2279 84.1498 51.4183 84.0342 51.5375C83.4175 52.1139 83.1091 52.5366 83.1091 52.8056C83.1091 53.4397 83.167 53.4973 85.8881 53.6702C85.9459 53.6702 86.1193 53.6702 86.4084 53.6126C87.3334 53.4397 88.0272 53.382 88.2006 53.382C88.3741 53.382 88.8944 53.4397 89.646 53.4973C89.935 53.5549 90.1663 53.5549 90.4554 53.5549C91.2069 53.5549 91.7273 53.2091 91.7273 52.7479V52.7441Z" class="fill-[var(--logo-color)]"></path>
    <path d="M107.314 49.5132C107.43 49.225 107.487 48.9944 107.487 48.8215C107.487 48.5333 107.314 48.3604 107.083 48.3604C106.967 48.3604 106.852 48.418 106.736 48.4756C105.637 49.0521 103.494 49.5132 101.818 49.5132C100.141 49.5132 99.328 49.1673 97.6514 47.7263C96.3217 46.6311 95.5123 45.6473 95.3389 44.9595C95.2811 44.6713 95.0498 42.2464 95.0498 41.8429C95.0498 40.7477 96.0327 39.9984 97.4202 39.9984C97.7093 39.9984 98.4608 40.056 99.5015 40.1713C99.8484 40.229 100.253 40.229 100.658 40.229C101.583 40.229 103.494 40.1713 104.015 40.1137C104.304 40.056 104.535 40.056 104.709 40.056C104.882 40.056 105.113 40.056 105.402 40.1137C105.865 40.1713 105.98 40.1713 106.212 40.1713C107.368 40.1713 108.004 39.4796 108.004 38.1538C108.004 35.6176 103.838 32.3281 100.6 32.3281C99.2124 32.3281 97.9367 32.7893 96.6648 33.6539C95.6241 34.4032 95.4507 34.6338 94.5256 36.0749C94.2944 36.3631 94.1209 36.6513 93.8897 36.8819C93.0225 38.0347 92.6756 39.0723 92.3287 40.9783C92.0397 43.0573 91.8662 44.1525 91.8662 44.2101C91.8662 44.7289 91.9818 45.19 92.3865 46.7502C92.849 48.3104 92.9069 48.4218 94.2944 50.2702L94.8147 51.0196C95.7975 52.5183 96.0866 52.7527 97.478 53.2138C98.9233 53.7326 99.7905 54.0208 100.195 54.0208C100.369 54.0208 100.427 54.0208 102.913 53.7326C103.259 53.7326 103.664 53.502 104.589 52.9833C106.15 52.0033 106.786 51.3116 107.137 50.0397L107.31 49.5209L107.314 49.5132ZM99.7327 34.457C101.872 34.457 103.61 35.7828 103.61 37.5159C103.61 38.0923 103.148 38.3806 102.107 38.3806C97.3046 38.3806 96.2639 38.2076 96.2639 37.2854C96.2639 35.8443 97.9983 34.457 99.7366 34.457H99.7327Z" class="fill-[var(--logo-color)]"></path>
    <path d="M133.496 32.4354H131.935C130.547 32.4354 129.85 32.7236 129.85 33.3576C129.85 33.5882 129.965 33.8764 130.197 34.2223C130.833 35.2022 131.006 35.7786 131.006 36.4127C131.006 37.9729 130.312 40.7973 129.676 41.8349L128.462 43.7947L128.173 44.3711C127.884 45.0629 127.653 45.5816 127.595 45.5816C127.479 45.5816 127.248 45.2358 127.017 44.717C126.843 44.4864 126.728 44.2559 126.612 43.9676C126.092 43.0454 125.745 42.2922 125.745 41.9502L125.803 41.1432L125.687 38.6031C125.687 38.2572 127.075 35.1983 127.479 34.6796C128.057 33.911 128.347 33.4691 128.347 33.3538C128.347 32.8927 127.595 32.6044 126.265 32.6044C125.88 32.6044 125.379 32.6621 124.762 32.7774C123.991 32.8927 123.606 33.1232 123.606 33.4691C123.606 33.6228 123.837 33.8726 124.3 34.2184C124.646 34.449 124.82 34.8525 124.82 35.256C124.82 35.89 124.531 36.3512 124.184 36.3512C123.837 36.3512 123.837 36.3512 122.739 33.984L122.912 33.1194C122.97 32.8888 122.45 32.543 122.045 32.543C121.814 32.543 121.409 32.6006 120.831 32.6582C120.599 32.7159 120.426 32.7159 120.31 32.7159C120.137 32.7159 119.848 32.7159 119.559 32.6582C119.328 32.6006 119.096 32.6006 118.923 32.6006C118.229 32.6006 117.767 33.0041 117.767 33.6382C117.767 34.0993 118.056 34.6181 118.403 34.9063C119.385 35.598 119.501 35.7133 120.31 37.9075C120.542 38.4263 120.773 39.0027 121.004 39.5792C121.351 40.3861 121.525 41.1355 121.525 41.6543C121.525 42.98 119.906 46.0389 119.15 46.0389C118.861 46.0389 118.746 45.8084 118.514 45.0014C118.399 44.7132 118.283 44.4249 118.052 44.1367C117.705 43.6756 117.647 43.618 117.647 43.5027C117.589 43.2145 117.358 42.6957 117.069 42.004C116.722 41.197 116.606 40.9088 116.549 40.5053L116.375 39.3524L116.202 38.7184C115.585 37.1787 115.277 36.2359 115.277 35.89C115.277 35.6018 115.335 35.3136 115.45 35.256C116.414 34.2953 116.896 33.6996 116.896 33.4691C116.896 32.7774 116.606 32.6621 114.872 32.6621C113.138 32.6621 112.035 32.6621 111.515 32.6044C110.32 32.5276 109.646 32.4892 109.492 32.4892C108.393 32.4892 107.815 32.835 107.815 33.5844C107.815 33.9879 107.873 34.2761 108.046 34.3914L109.145 35.4289C109.376 35.9477 109.549 36.2935 109.723 36.4665L110.127 37.1005L110.648 37.7346C110.763 37.8499 110.937 38.1381 111.11 38.5992C114.12 45.8698 115.797 50.0201 116.144 51L116.375 51.4611L116.722 52.3834C117.069 53.421 117.358 53.8245 117.878 53.8245C118.341 53.8245 118.688 53.2481 118.919 52.1528L119.208 51.2882L119.902 50.193L120.307 49.2707C120.943 47.8297 122.214 45.5778 122.392 45.5778C122.623 45.5778 122.854 46.0389 123.028 46.673L123.317 47.4223L124.068 49.1516C124.184 49.6127 124.357 50.0739 124.473 50.4774C125.205 52.9393 125.783 54.1703 126.207 54.1703C126.959 54.1703 128.115 52.4411 128.636 50.535C128.925 49.6704 129.561 47.822 130.601 45.0552C131.353 43.4412 131.989 41.881 132.509 40.3247C133.376 37.7846 133.897 36.4588 134.012 36.1706C134.937 34.9024 135.4 34.0378 135.4 33.5767C135.4 32.7697 134.822 32.4238 133.488 32.4238L133.496 32.4354Z" class="fill-[var(--logo-color)]"></path>
    <path d="M153.738 35.725C152.524 34.0534 152.409 33.9958 150.439 33.1273C149.242 32.6277 147.872 32.3779 146.33 32.3779C142.684 32.3779 138.576 34.2801 136.957 36.6473C135.396 39.0683 135.338 39.245 135.338 41.2625L135.28 43.1647V44.3176C135.28 46.5656 136.032 48.1834 138.117 50.2586C140.372 52.5066 143.671 53.9515 146.508 53.9515C147.317 53.9515 147.953 53.8362 149.167 53.4904C151.422 52.2799 153.565 50.3738 154.201 49.0481C155.357 46.7385 156.051 44.087 156.051 42.0695C156.051 39.7062 155.531 37.8001 154.548 36.7049C154.085 36.1862 153.854 35.898 153.738 35.725ZM148.419 50.5506C147.61 51.0117 146.045 51.4152 145.236 51.4152C145.005 51.4152 144.889 51.3576 144.253 50.9541C143.675 50.6082 143.155 50.32 142.576 50.0318C141.247 49.3401 140.726 48.8213 140.437 47.7223C140.264 47.1459 140.033 46.4542 139.744 45.7625C139.454 44.9555 139.397 44.552 139.397 41.7813C139.397 39.2412 139.686 38.3766 140.958 36.8779C142.461 35.091 142.981 34.7451 144.315 34.7451C144.951 34.7451 146.858 35.0333 147.44 35.2639C148.597 35.6674 149.699 36.9932 150.335 38.8992C150.566 39.514 150.759 39.9944 150.913 40.3402C151.299 41.3778 151.491 42.204 151.491 42.8189C151.491 46.3965 150.277 49.5131 148.423 50.5506H148.419Z" class="fill-[var(--logo-color)]"></path>
    <path d="M175.87 35.725C174.656 34.0534 174.54 33.9958 172.57 33.1273C171.376 32.6277 170.006 32.3779 168.462 32.3779C164.816 32.3779 160.707 34.2801 159.088 36.6473C157.527 39.0683 157.469 39.245 157.469 41.2625L157.412 43.1647V44.3176C157.412 46.5656 158.163 48.1834 160.248 50.2586C162.507 52.5066 165.802 53.9515 168.639 53.9515C169.448 53.9515 170.084 53.8362 171.302 53.4904C173.557 52.2799 175.7 50.3738 176.336 49.0481C177.492 46.7385 178.19 44.087 178.19 42.0695C178.19 39.7062 177.67 37.8001 176.687 36.7049C176.224 36.1862 175.993 35.898 175.877 35.725H175.87ZM170.543 50.5506C169.734 51.0117 168.173 51.4152 167.363 51.4152C167.132 51.4152 167.016 51.3576 166.38 50.9541C165.802 50.6082 165.282 50.32 164.704 50.0318C163.374 49.3401 162.854 48.8213 162.565 47.7223C162.391 47.1459 162.16 46.4542 161.871 45.7625C161.582 44.9555 161.524 44.552 161.524 41.7813C161.524 39.2412 161.813 38.3766 163.085 36.8779C164.588 35.091 165.109 34.7451 166.442 34.7451C167.078 34.7451 168.99 35.0333 169.568 35.2639C170.724 35.6674 171.823 36.9932 172.462 38.8992C172.694 39.514 172.886 39.9944 173.041 40.3402C173.426 41.3778 173.619 42.204 173.619 42.8189C173.619 46.3965 172.405 49.5131 170.551 50.5506H170.543Z" class="fill-[var(--logo-color)]"></path>
    <path d="M197.993 51.1264C197.801 50.6653 197.589 50.2618 197.357 49.916C197.068 49.3395 197.01 49.1666 197.01 48.4711L197.126 45.4122L197.01 39.0677L197.242 27.5892C197.242 26.9551 197.242 26.2058 197.184 25.5141C197.126 24.5341 197.068 23.7848 197.068 23.3198V22.8587L197.357 21.1294L197.473 20.1495C197.473 19.1119 197.473 19.0543 197.878 17.3827C197.935 17.0945 197.993 16.8062 197.993 16.5757C197.993 15.9416 197.473 15.4805 196.837 15.4805C196.143 15.4805 195.507 15.7687 194.929 16.2875L194.467 16.7486L194.062 16.9215C191.167 18.0167 190.647 18.3049 190.647 19.1696C190.647 19.5731 190.763 19.8613 190.936 19.9189C191.784 20.4569 192.227 20.7451 192.266 20.7836C192.613 21.2447 192.844 21.8211 192.902 22.2823C192.96 22.5705 193.017 25.5141 193.017 26.4363C193.017 27.5315 192.786 30.4175 192.613 32.2044C192.613 32.262 192.613 32.5503 192.671 32.8961C192.728 33.1843 192.728 33.4149 192.728 33.6455C192.728 34.049 192.497 34.3948 192.324 34.3948C192.15 34.3948 191.919 34.1642 191.572 33.7607C190.936 32.9538 190.011 32.4926 188.913 32.4926C187.699 32.4926 183.937 33.8184 182.954 34.5677C180.464 36.5891 179.539 39.3559 179.539 44.6628C179.539 46.0462 179.77 47.0838 180.348 48.2405C180.869 49.1628 181.852 50.7767 182.256 51.2417C182.95 52.164 183.933 52.9133 184.688 53.1439C185.093 53.2592 185.44 53.3745 185.613 53.4321C186.307 53.6627 186.827 53.778 187.174 53.778C188.022 53.6243 188.562 53.5282 188.793 53.4898C189.834 53.3168 189.892 53.3168 190.701 52.9133C191.742 52.3946 192.089 52.2216 192.262 52.2216C192.435 52.2216 192.493 52.2793 192.551 52.3369C193.052 53.2208 193.688 53.6627 194.459 53.6627C194.69 53.6627 194.979 53.6627 195.21 53.6051C195.442 53.5474 195.615 53.5474 195.673 53.5474C195.731 53.5474 195.846 53.5474 196.02 53.6051C196.482 53.6627 196.945 53.7203 197.407 53.7203C198.217 53.7203 198.737 53.3745 198.737 52.7981C198.737 52.6251 198.679 52.4522 198.621 52.3369C198.313 51.7605 198.101 51.357 197.986 51.1264H197.993ZM192.786 42.5877C192.728 42.7606 192.728 42.8183 192.728 42.8759L192.786 45.8195C192.786 46.3959 192.208 48.0676 191.803 48.8207C191.052 50.0889 189.664 50.8959 188.099 50.8959C186.654 50.8959 185.44 50.3194 184.8 49.2819C184.049 48.1867 183.355 46.2268 183.355 45.416C183.355 43.3985 183.413 41.5501 183.528 41.1466C183.991 39.4174 185.32 37.8572 186.766 37.3384C187.228 37.2231 189.256 36.8773 189.776 36.8773C191.51 36.8773 192.613 37.6843 192.613 39.01C192.67 39.5288 192.728 40.3934 192.902 41.5501C192.902 41.6078 192.844 42.0113 192.786 42.5877Z" class="fill-[var(--logo-color)]"></path>
    <path d="M203.154 20.3844C203.327 20.2384 203.416 20.0116 203.416 19.6965C203.416 19.3622 203.315 19.1163 203.119 18.951C202.918 18.7858 202.614 18.7051 202.202 18.7051H200.856V22.1713H201.396V20.6803H201.97L202.918 22.1713H203.5L202.506 20.638C202.764 20.6111 202.984 20.5266 203.157 20.3805L203.154 20.3844ZM201.959 20.246H201.392V19.1432H202.109C202.198 19.1432 202.29 19.1508 202.383 19.1624C202.475 19.1739 202.556 19.2008 202.629 19.2392C202.703 19.2777 202.76 19.3276 202.803 19.3968C202.849 19.466 202.872 19.5582 202.872 19.6735C202.872 19.8118 202.845 19.9194 202.795 19.9963C202.745 20.0731 202.676 20.1308 202.591 20.1653C202.506 20.2038 202.41 20.223 202.302 20.2345C202.194 20.2422 202.078 20.246 201.955 20.246H201.959Z" class="fill-[var(--logo-color)]"></path>
    <path d="M204.117 18.3248C203.847 18.0597 203.531 17.8522 203.169 17.7023C202.807 17.5524 202.425 17.4756 202.017 17.4756C201.608 17.4756 201.223 17.5524 200.86 17.7023C200.498 17.8522 200.178 18.0597 199.905 18.3248C199.631 18.59 199.415 18.9013 199.257 19.2625C199.099 19.6237 199.018 20.0118 199.018 20.4307C199.018 20.8496 199.099 21.2531 199.257 21.6181C199.415 21.9832 199.631 22.2945 199.905 22.5635C200.178 22.8325 200.498 23.04 200.86 23.186C201.223 23.332 201.608 23.4089 202.017 23.4089C202.425 23.4089 202.811 23.3359 203.169 23.186C203.531 23.0361 203.847 22.8286 204.117 22.5635C204.387 22.2983 204.603 21.9832 204.761 21.6181C204.919 21.2569 205 20.8611 205 20.4307C205 20.0003 204.919 19.6237 204.761 19.2625C204.603 18.9013 204.387 18.59 204.117 18.3248ZM204.271 21.4414C204.148 21.7526 203.975 22.0178 203.755 22.2484C203.535 22.4751 203.277 22.6557 202.98 22.7825C202.683 22.9132 202.364 22.9785 202.017 22.9785C201.67 22.9785 201.342 22.9132 201.042 22.7825C200.741 22.6519 200.483 22.4751 200.263 22.2484C200.043 22.0216 199.87 21.7526 199.747 21.4414C199.623 21.1301 199.558 20.7958 199.558 20.4307C199.558 20.0656 199.619 19.7467 199.747 19.4393C199.87 19.1318 200.043 18.8667 200.263 18.64C200.483 18.4171 200.745 18.2365 201.042 18.1097C201.342 17.979 201.666 17.9137 202.017 17.9137C202.367 17.9137 202.683 17.979 202.98 18.1097C203.277 18.2403 203.535 18.4171 203.755 18.64C203.975 18.8667 204.148 19.1318 204.271 19.4393C204.395 19.7467 204.46 20.0772 204.46 20.4307C204.46 20.7843 204.399 21.1339 204.271 21.4414Z" class="fill-[var(--logo-color)]"></path>
    <path d="M31.8674 14.5277C31.9368 13.9897 31.1235 13.8053 30.4568 14.3855C30.1214 14.6776 30.0983 15.2502 29.7977 15.3885C28.3176 16.0687 30.9077 13.6861 29.7476 13.4863C28.5874 13.2827 27.9708 15.2463 26.8646 15.7959C25.2651 16.5875 26.1862 14.8582 26.6102 14.251C27.3387 13.2096 26.9841 13.0098 27.0265 11.8339C27.038 11.4957 27.2886 11.2575 27.2076 10.8809C27.0689 10.2315 27.1806 9.05171 26.4522 9.33223C25.7237 9.61276 24.9105 11.2921 23.9161 10.6772C23.2416 10.2584 24.0317 9.96246 23.7465 9.49748C23.5731 9.21311 22.7868 9.33224 22.7174 9.02097C22.648 8.7097 23.2493 8.17939 23.4613 7.72594C23.7658 7.07266 23.6964 6.8882 23.6501 6.33484C23.6155 5.93519 23.8429 5.77379 24.1165 4.97448C24.3902 4.17518 22.9294 5.45868 22.7213 5.30112C22.5131 5.14357 23.5615 4.00225 23.0373 3.40661C22.4592 2.74949 22.2241 3.82164 21.9735 3.68714C21.723 3.55648 21.9003 2.18844 21.6614 2.01167C21.1487 1.63507 20.852 2.52661 20.3548 1.8887C20.1698 1.65045 20.6708 0.943367 20.667 0.5245C20.6554 -0.451575 19.5338 0.643627 19.1754 0.662841C18.7244 0.689741 18.4623 0.436115 17.9073 0.486072C16.3656 0.62057 15.5716 1.81184 14.3768 2.41517C12.6116 3.3067 13.1627 1.9156 12.415 2.29604C11.6673 2.67648 12.0257 3.76784 11.833 3.84469C11.6403 3.92155 11.278 3.47578 11.2163 3.83701C11.2009 4.07526 11.2163 4.32505 11.4977 4.68243C11.779 5.03981 11.6172 5.42409 11.5092 5.55859C11.1778 5.95056 10.4763 5.6585 10.3029 5.73536C9.96755 5.87754 10.1564 6.73449 10.1564 7.22253C9.91744 7.1841 9.74786 6.46165 9.53587 6.91126C9.32389 7.36087 9.45108 7.80664 9.67462 8.31773C10.0292 9.14009 11.0198 9.55128 10.2759 9.77032C9.29305 10.0624 9.37399 12.3642 9.16201 12.4295C8.49908 12.6332 7.97875 10.5927 7.67041 11.2498C7.35822 11.9069 7.13082 12.0299 6.83789 12.5602C6.36382 13.4133 7.04988 13.4402 6.89185 14.2818C6.67216 15.4308 3.83543 14.7083 3.75449 13.7937C3.69282 13.1136 3.31896 13.3518 3.00677 14.105C2.69457 14.8582 3.2149 15.4961 3.68511 16.0648C3.91637 16.3492 4.07054 16.549 4.42128 16.9026C4.77201 17.2561 4.6217 17.625 4.87222 18.0746C5.12275 18.5204 6.02079 18.3705 6.23278 18.6549C6.64518 19.2083 5.75485 19.0123 5.43495 19.1314C4.60243 19.4388 6.45247 20.4841 6.75695 21.3603C7.40061 23.201 4.18231 21.3257 4.26325 22.002C4.3943 23.0665 5.09577 23.7121 6.03621 24.2385C7.42374 25.0186 7.41218 25.1185 9.3817 25.3068C11.3512 25.4951 13.209 25.0801 13.209 25.0801C11.7868 26.3713 10.4339 26.5404 9.73244 26.4981C9.03096 26.4558 8.36032 25.7949 7.99417 25.9447C7.62802 26.0946 7.70125 26.4405 7.50082 26.6595C7.3004 26.8785 5.64307 25.7526 6.4833 27.1552C7.15394 28.2773 8.52606 28.4426 8.52606 28.4426C9.00013 28.6309 9.72858 28.5578 10.3992 28.3119C11.2664 27.993 11.5632 28.162 12.3803 27.6433C13.498 26.9323 13.9528 27.0399 14.5927 26.8709C15.2325 26.6979 16.1459 26.0754 16.1459 26.0754C16.1575 27.1206 15.7297 27.7931 14.7854 28.1159C12.7889 28.7961 10.9118 30.1872 10.2142 30.5292C9.67848 30.7944 9.13888 29.9451 8.3873 29.9874C7.63572 30.0296 8.89992 30.5869 8.45668 30.7482C7.31197 31.1594 8.12521 30.4062 6.44091 30.2525C5.65464 30.1795 5.56984 29.0113 5.07265 28.6616C4.57545 28.3119 5.24609 29.776 4.00887 29.1535C3.12625 28.7077 2.55967 28.6116 2.19737 28.7039C1.23766 28.946 1.67319 30.5023 1.39569 30.5215C1.01797 30.5484 0.435979 29.5378 0.274101 30.2103C0.112222 30.8827 1.25694 31.3669 1.2685 31.5745C1.28006 31.782 -0.176847 31.6744 0.0235743 32.32C0.223995 32.9656 1.0411 32.5083 0.644109 33.2192C0.543898 33.3998 0.35504 33.6611 0.644109 33.9339C0.948595 34.2222 1.6308 33.7341 2.01237 33.8494C2.64447 34.0415 2.71384 34.1607 2.8102 34.6333C2.86801 34.9215 2.93739 35.2098 3.14166 35.448C3.28427 35.6094 3.72751 35.6056 3.86626 35.6747C4.81056 36.1513 4.83368 37.4655 5.30005 36.0129C5.43495 35.5902 6.29444 35.0061 7.25801 35.0061C8.07125 35.0061 8.07511 33.9532 8.07511 33.9532C8.59929 33.6957 9.21597 34.3797 9.67848 33.8801C9.94828 33.5919 9.48191 33.5804 9.58983 33.1116C9.69389 32.6428 10.2027 32.5813 10.723 32.2815C12.1028 31.4784 11.3011 31.1902 12.1992 30.4485C12.8043 29.9451 14.7006 29.2918 16.1305 28.9921C16.1305 28.9921 16.1228 29.2534 16.1228 29.6377C16.1228 30.022 16.0804 30.2602 16.0496 30.3486C16.0187 30.4331 15.7566 30.8904 14.9472 31.2248C13.8064 31.6974 13.4479 32.3891 12.8351 32.5928C11.806 32.9348 10.7191 32.7158 11.517 33.2576C11.9987 33.5842 12.6231 33.4882 13.2475 33.2346C13.6252 33.0808 14.2727 32.7081 14.4192 32.5467C14.8586 32.051 15.8299 31.9741 16.1228 31.8742V33.0732C16.1228 33.6918 15.1669 34.2798 14.7545 34.5911C13.9413 35.1905 13.0818 35.594 12.2377 35.5402C11.8908 35.5172 12.2069 35.2482 11.9602 35.1982C11.7135 35.1483 11.6711 35.4403 10.9041 35.3174C10.6382 35.2751 10.3376 35.0599 10.2412 35.3712C10.1448 35.6786 10.0061 35.8938 9.82879 36.1935C9.15045 37.7499 12.8351 36.4625 13.2514 36.2934C15.4444 35.3904 16.1228 34.96 16.1228 34.6795L16.1344 36.1512C16.1344 36.8891 14.9935 37.404 14.188 37.6423C13.5983 37.8152 12.9006 37.992 12.2416 38.3493C12.0296 38.4646 11.5594 38.7183 11.3628 38.8412C10.854 39.1602 10.4455 39.556 10.2219 39.8634C9.50889 40.8587 10.3144 40.459 10.7423 40.3476C11.1508 40.24 11.093 40.5897 11.3705 40.559C12.5152 40.4398 12.8544 38.3493 16.1189 38.1995C16.1189 38.1995 16.1189 40.0133 16.1189 41.2814L16.0033 59.5771C16.0033 59.8307 15.8222 61.5523 16.1228 62.0365C16.2461 62.2363 18.2426 62.0787 18.2426 62.0787C18.5124 61.9596 18.2426 56.8563 18.2465 56.4067L18.1309 40.1055L18.1424 37.4693C20.6361 37.8997 21.4185 40.1401 23.1375 41.2353C23.3457 41.3698 23.4343 41.3736 23.5345 41.2353C23.6309 41.097 23.23 40.5205 23.5692 40.3553C23.7002 40.29 24.209 40.2823 24.3401 40.2976C24.8681 40.3668 24.6715 40.8049 25.0569 40.9894C25.3923 41.1508 27.3117 41.1123 27.6046 40.6051C27.8975 40.0978 25.9164 39.3562 25.8702 38.7221C25.8239 38.088 24.1358 37.8882 23.2108 37.6615C22.6326 37.5193 22.1701 37.5885 21.6421 37.2695C21.2913 37.0582 21.1911 36.5394 20.8327 36.5816C20.5282 36.6162 20.3548 37.1927 19.9809 37.2465C19.8152 37.2695 18.736 36.5202 18.5818 36.3933C18.1154 36.0091 18.0885 35.3443 18.1386 33.8494C18.1386 33.8494 19.9963 34.3951 20.3393 35.0637C20.613 35.6017 20.9175 35.4672 22.0892 35.9899C23.2609 36.5125 21.7539 35.0176 21.222 34.5949C20.5629 34.0646 20.1119 33.5727 19.2293 33.273C18.443 33.0078 18.1733 32.4737 18.1386 31.3247C18.1386 31.3247 18.127 30.2026 18.1386 29.6108C19.7072 30.022 20.7171 32.3353 21.7461 33.4805C23.6116 35.5556 28.2059 37.0466 27.9052 35.8361C27.6046 34.6295 29.0153 35.5018 29.2272 34.6948C29.2735 34.5181 29.1347 34.2721 28.7956 33.8763C28.4217 33.4382 28.6568 33.4382 28.8727 33.1423C29.3776 32.4429 28.0478 33.0309 27.408 32.7158C26.3404 32.2931 26.7759 33.0001 26.167 33.5381C25.7931 33.8686 25.3036 33.8148 24.6946 33.4382C24.3979 33.2538 24.2707 32.8656 24.7332 32.6581C25.5272 32.3007 25.3306 31.9395 24.7486 31.9741C24.4711 31.9895 24.3401 31.6897 24.4403 31.44C24.8527 30.4216 24.2052 30.7329 23.7773 30.8482C22.7675 31.121 21.2567 30.3947 20.5475 29.9605C19.5415 29.3495 18.127 28.335 18.1386 27.4934L18.1309 26.99C19.1252 27.4165 20.1428 28.7385 21.0601 28.6385C21.4262 28.6001 20.3779 27.4934 21.5573 28.2773C23.5654 29.6108 24.8295 27.9968 26.6565 27.6702C28.1288 27.4088 28.5373 28.1928 29.127 26.5634C29.208 26.3444 29.5549 25.6181 29.3699 25.3414C28.784 24.4537 28.8418 25.5143 28.3369 25.7449C27.0188 26.3444 28.0363 25.7142 27.8898 25.3299C27.8436 25.2069 27.3772 24.961 27.9438 24.6997C28.5142 24.4345 26.934 22.882 26.5986 23.9503C26.0591 25.6565 25.8432 25.8218 24.4133 25.9178C22.5671 26.037 21.6845 26.2867 20.1698 24.9264C21.3684 25.3568 21.8618 24.1002 22.9294 23.8581C24.3747 23.5314 24.1011 24.2116 25.4192 23.2279C25.7815 22.9589 25.9897 22.3133 26.5524 22.4093C30.372 23.0626 29.5587 21.3718 29.5587 21.3718C29.0885 20.5686 29.8169 20.4841 30.3373 20.1306C30.5146 20.0114 31.0002 19.6464 31.1582 19.5926C31.4589 19.4888 32.4725 19.7962 32.4841 19.3351C32.4957 18.8739 31.6362 18.4666 31.8173 18.0939C31.9985 17.7211 32.3877 17.7249 32.4879 17.5213C32.5997 17.2946 32.2104 17.1063 32.5188 16.5759C32.8271 16.0495 31.798 15.0849 31.8674 14.5469V14.5277Z" class="fill-[var(--logo-color)]"></path>
  </g>
</svg>
